# xmcd
#
# Track frame offsets:
#	183
#	12928
#	26480
#	39135
#	51508
#	63145
#	77183
#	90760
#	104530
#	120443
#	134973
#	147105
#	162593
#	177580
#	189115
#	201620
#	215498
#	229163
#	242883
#	255510
#	271468
#	284353
#	296835
#	308038
#	320838
#	334575
#
# Disc length: 4630 seconds
#
# Revision: 0
# Processed by: cddbd v1.4PL0 Copyright (c) Steve Scherf et al.
# Submitted via: dBpowerAMP V4.0
#
DISCID=8812141a
DTITLE=Various Artist - New Orleans Blues 1923-40
DYEAR=1992
DGENRE=General Blues
TTITLE0=Mamie'S Blues
TTITLE1=Winin' Boy
TTITLE2=New Orleans Joys
TTITLE3=Chinese Man Blues
TTITLE4=Crescent City Blues
TTITLE5=James Alley Blues
TTITLE6=Mama Cookie
TTITLE7=He'S The Sweetest Black Man In Town
TTITLE8=Haven'T Got A Dollar To Pay Your House Rent
TTITLE9=Snag It
TTITLE10=Trouble In Mind
TTITLE11=I Hate A Man Like You
TTITLE12=Old New Orleans Blues
TTITLE13=Charleston Hound
TTITLE14=West Indies Blues
TTITLE15=That Twa-Twa Tune
TTITLE16=A Pane In The Glass
TTITLE17=I'm Not Rough
TTITLE18=The Reverend Is My Man
TTITLE19=Doggin' That Thing
TTITLE20=Pleading Blues
TTITLE21=Something Keeps A-Worryin' Me
TTITLE22=Goodbye Good Luck To You
TTITLE23=New Orleans Blues
TTITLE24=Sidney'S Blues
TTITLE25=Warehouse Man Blues
EXTD=william hale
EXTT0=
EXTT1=
EXTT2=
EXTT3=
EXTT4=
EXTT5=
EXTT6=
EXTT7=
EXTT8=
EXTT9=
EXTT10=
EXTT11=
EXTT12=
EXTT13=
EXTT14=
EXTT15=
EXTT16=
EXTT17=
EXTT18=
EXTT19=
EXTT20=
EXTT21=
EXTT22=
EXTT23=
EXTT24=
EXTT25=
PLAYORDER=
